<svg width="340" height="80" viewBox="0 0 340 80" fill="none" xmlns="http://www.w3.org/2000/svg">
<path d="M120.771 58C132.771 58 140.211 49.84 140.691 40.11H131.851C131.241 45.48 127.851 50.18 120.771 50.18C112.771 50.18 109.411 44.74 109.411 37.12V29.39C109.411 21.77 112.811 16.33 120.771 16.33C127.841 16.33 131.241 21.02 131.851 26.4H140.691C140.211 16.67 132.801 8.50999 120.771 8.50999C106.421 8.50999 99.9612 17.69 99.9612 29.86V36.66C99.9612 48.84 106.421 58 120.771 58Z" fill="#1B1B20"/>
<path d="M145.721 57.06H154.961V36.12C154.961 31.36 157.611 28.91 161.761 28.91C166.241 28.91 168.221 31.84 168.221 35.91V57.06H177.461V34.42C177.461 26.06 172.641 20.89 164.951 20.89C160.401 20.89 156.791 22.89 154.951 25.89V7.42H145.701L145.721 57.06Z" fill="#1B1B20"/>
<path d="M195.131 57.88C199.211 57.88 203.691 56.18 205.331 53.8V57.06H214.231V34.49C214.231 26.26 208.181 20.89 199.341 20.89C191.731 20.89 186.221 24.56 184.181 31.43H192.751C193.751 29.52 195.671 28.1 198.871 28.1C202.671 28.1 204.991 30.54 204.991 33.81V38.64C202.423 36.64 199.246 35.5811 195.991 35.64C187.491 35.64 181.711 39.18 181.711 46.86C181.731 53.73 187.171 57.88 195.131 57.88ZM197.511 51.76C193.631 51.76 190.711 49.86 190.711 46.59C190.711 43.32 193.431 41.59 197.781 41.59C201.931 41.59 204.991 43.43 204.991 46.59C204.991 49.75 201.591 51.76 197.511 51.76Z" fill="#1B1B20"/>
<path d="M231.511 57.06H237.961V49.58H234.221C231.771 49.58 230.881 48.63 230.881 46.32V29.18H238.431V21.7H230.881V12.05H221.571V21.7H216.571V29.18H221.571V47C221.521 53.26 224.711 57.06 231.511 57.06Z" fill="#1B1B20"/>
<path d="M242.961 57.06H264.661C274.181 57.06 280.771 51.62 280.771 43.67C280.771 37.21 276.831 33.47 271.931 32.45C273.848 31.3472 275.422 29.7364 276.481 27.7953C277.54 25.8542 278.042 23.6583 277.931 21.45C277.931 14.31 272.691 9.45 264.331 9.45H242.961V57.06ZM252.211 49.58V36.58H264.111C268.601 36.58 271.251 39.09 271.251 43.04C271.251 46.99 268.741 49.56 264.181 49.56L252.211 49.58ZM252.211 29.18V16.94H262.141C266.081 16.94 268.401 19.26 268.401 22.86C268.401 26.46 266.221 29.18 262.211 29.18H252.211Z" fill="#1B1B20"/>
<path d="M299.491 57.88C310.101 57.88 316.151 50.94 316.151 41.88V36.88C316.151 27.88 310.101 20.88 299.491 20.88C288.881 20.88 282.831 27.81 282.831 36.88V41.88C282.831 50.94 288.881 57.88 299.491 57.88ZM307.171 42.51C307.171 47.14 304.731 50.6 299.491 50.6C294.251 50.6 291.811 47.14 291.811 42.51V36.26C291.811 31.63 294.251 28.16 299.491 28.16C304.731 28.16 307.171 31.63 307.171 36.26V42.51Z" fill="#1B1B20"/>
<path d="M332.551 57.06H338.961V49.58H335.221C332.771 49.58 331.891 48.63 331.891 46.32V29.18H339.441V21.7H331.891V12.05H322.571V21.7H317.571V29.18H322.571V47C322.551 53.26 325.751 57.06 332.551 57.06Z" fill="#1B1B20"/>
<path d="M58.9611 31.39V39.22C58.9713 39.7508 58.8288 40.2734 58.5504 40.7254C58.2721 41.1775 57.8697 41.5401 57.3911 41.77C51.9411 44.3841 46.0031 45.8252 39.9611 46C33.9239 45.8304 27.9895 44.3962 22.5411 41.79C22.0584 41.5591 21.6525 41.1938 21.3722 40.738C21.0919 40.2821 20.9492 39.755 20.9611 39.22V31.39C20.9743 31.0313 21.0746 30.6812 21.2534 30.3699C21.4323 30.0587 21.6842 29.7957 21.9875 29.6037C22.2908 29.4117 22.6363 29.2964 22.9941 29.2679C23.3519 29.2394 23.7113 29.2984 24.0411 29.44C29.0653 31.6523 34.4732 32.8616 39.9611 33C45.4509 32.8677 50.862 31.6652 55.8911 29.46C56.219 29.321 56.5756 29.2633 56.9306 29.2918C57.2855 29.3204 57.6284 29.4342 57.9298 29.6238C58.2313 29.8133 58.4825 30.0729 58.6621 30.3804C58.8417 30.6879 58.9443 31.0343 58.9611 31.39Z" fill="#0066FF"/>
<path d="M79.5011 49.73C79.0949 54.4809 76.906 58.9022 73.3741 62.1057C69.8423 65.3093 65.2291 67.0577 60.4611 67H49.9611L29.9611 80V67L49.9611 54H60.4811C61.9696 54.0538 63.423 53.5407 64.5478 52.5644C65.6727 51.5881 66.3851 50.2212 66.5411 48.74C67.1525 38.7476 67.1024 28.7258 66.3911 18.74C66.2707 17.408 65.675 16.1638 64.7129 15.2347C63.7508 14.3057 62.4865 13.7538 61.1511 13.68C54.3311 13.26 47.1511 13 39.9611 13C32.7711 13 25.5911 13.24 18.7711 13.72C17.4357 13.7938 16.1714 14.3457 15.2093 15.2747C14.2472 16.2038 13.6515 17.448 13.5311 18.78C12.8199 28.7658 12.7698 38.7876 13.3811 48.78C13.5466 50.254 14.2631 51.611 15.3869 52.5791C16.5107 53.5471 17.9589 54.0547 19.4411 54H29.9611V67H19.4611C14.6985 67.0474 10.0939 65.2929 6.5703 62.0883C3.04671 58.8837 0.864526 54.4658 0.461126 49.72C-0.200246 39.0619 -0.150135 28.3715 0.611126 17.72C0.98911 13.303 2.93314 9.1664 6.09253 6.05652C9.25192 2.94664 13.4187 1.06818 17.8411 0.76C24.9611 0.25 32.4611 0 39.9611 0C47.4611 0 54.9611 0.25 62.0811 0.76C66.517 1.06026 70.6983 2.94036 73.8668 6.05929C77.0353 9.17822 78.981 13.3294 79.3511 17.76C80.1111 28.4015 80.1612 39.0818 79.5011 49.73Z" fill="#0066FF"/>
</svg>
